<svg width="238" height="34" viewBox="0 0 238 34" fill="none" xmlns="http://www.w3.org/2000/svg">
<g clip-path="url(#clip0)">
<path d="M233.938 33.2093H131.72C129.595 33.2093 127.785 31.4105 127.785 29.2426V3.87442C127.785 1.70659 129.595 0 131.72 0H233.984C236.109 0 237.738 1.70659 237.738 3.87442V29.2426C237.738 31.4105 236.064 33.2093 233.938 33.2093Z" fill="#A6A6A6"/>
<path d="M237.059 29.2426C237.059 30.9954 235.657 32.4252 233.938 32.4252H131.72C130.002 32.4252 128.599 30.9954 128.599 29.2426V3.87442C128.599 2.12171 130.002 0.691864 131.72 0.691864H233.984C235.702 0.691864 237.104 2.12171 237.104 3.87442L237.059 29.2426Z" fill="black"/>
<path d="M152.39 16.374C152.345 13.6989 154.561 12.4074 154.651 12.3151C153.43 10.4702 151.531 10.2395 150.852 10.1934C149.269 10.0089 147.686 11.162 146.872 11.162C146.058 11.162 144.792 10.1934 143.435 10.2395C141.671 10.2857 140.042 11.3004 139.183 12.9147C137.329 16.1895 138.731 20.9864 140.495 23.6155C141.399 24.907 142.394 26.3368 143.751 26.2907C145.063 26.2446 145.56 25.4144 147.189 25.4144C148.772 25.4144 149.224 26.2907 150.626 26.2446C152.028 26.1985 152.933 24.9531 153.792 23.6616C154.832 22.1857 155.239 20.7097 155.239 20.6636C155.149 20.6636 152.435 19.6027 152.39 16.374Z" fill="white"/>
<path d="M149.812 8.48683C150.536 7.56435 151.033 6.36513 150.897 5.07365C149.857 5.11978 148.591 5.81164 147.822 6.688C147.143 7.4721 146.601 8.76358 146.736 9.9628C147.867 10.1012 149.043 9.40931 149.812 8.48683Z" fill="white"/>
<path d="M171.567 26.107H169.713L168.718 22.8783H165.19L164.24 26.107H162.431L165.914 15.0372H168.039L171.567 26.107ZM168.401 21.4946L167.497 18.5888C167.406 18.312 167.225 17.6202 166.954 16.5132H166.909C166.818 16.9744 166.637 17.6663 166.411 18.5888L165.506 21.4946H168.401Z" fill="white"/>
<path d="M180.523 22.0473C180.523 23.3849 180.161 24.4919 179.437 25.276C178.804 25.9679 177.99 26.3369 177.04 26.3369C176 26.3369 175.276 25.9679 174.824 25.1838V29.3811H173.105V20.7559C173.105 19.9256 173.105 19.0493 173.06 18.1268H174.598L174.688 19.3721H174.733C175.321 18.4035 176.181 17.9423 177.357 17.9423C178.261 17.9423 179.03 18.3113 179.663 19.0493C180.251 19.8334 180.523 20.802 180.523 22.0473ZM178.759 22.0935C178.759 21.3093 178.578 20.6636 178.261 20.1562C177.899 19.6489 177.402 19.3721 176.769 19.3721C176.362 19.3721 175.954 19.5105 175.593 19.7873C175.231 20.064 175.005 20.4791 174.914 20.9404C174.869 21.171 174.824 21.3555 174.824 21.4938V22.8314C174.824 23.431 175.005 23.8923 175.366 24.3074C175.728 24.7225 176.181 24.907 176.723 24.907C177.357 24.907 177.899 24.6303 178.261 24.1229C178.578 23.6155 178.759 22.9237 178.759 22.0935Z" fill="white"/>
<path d="M189.523 22.0473C189.523 23.3849 189.161 24.4919 188.438 25.276C187.804 25.9679 186.99 26.3369 186.041 26.3369C185 26.3369 184.277 25.9679 183.824 25.1838H183.779V29.3811H182.06V20.7559C182.06 19.9256 182.06 19.0493 182.015 18.1268H183.553L183.643 19.3721H183.689C184.277 18.4035 185.136 17.9423 186.312 17.9423C187.216 17.9423 187.985 18.3113 188.619 19.0493C189.207 19.8334 189.523 20.802 189.523 22.0473ZM187.759 22.0935C187.759 21.3093 187.578 20.6636 187.262 20.1562C186.9 19.6489 186.402 19.3721 185.769 19.3721C185.317 19.3721 184.955 19.5105 184.593 19.7873C184.231 20.064 184.005 20.4791 183.915 20.9404C183.87 21.171 183.824 21.3555 183.824 21.4938V22.8314C183.824 23.431 184.005 23.8923 184.367 24.3074C184.729 24.7225 185.181 24.907 185.724 24.907C186.357 24.907 186.9 24.6303 187.262 24.1229C187.578 23.6155 187.759 22.9237 187.759 22.0935Z" fill="white"/>
<path d="M199.609 23.0159C199.609 23.9384 199.293 24.7225 198.66 25.3221C197.936 25.9678 196.986 26.2907 195.72 26.2907C194.544 26.2907 193.639 26.0601 192.915 25.5989L193.322 24.1229C194.091 24.5841 194.905 24.8147 195.855 24.8147C196.489 24.8147 197.031 24.6764 197.393 24.3535C197.755 24.0306 197.936 23.6616 197.936 23.1543C197.936 22.693 197.8 22.3241 197.484 22.0012C197.167 21.6783 196.669 21.4016 195.991 21.1248C194.091 20.3868 193.142 19.326 193.142 17.9423C193.142 17.0198 193.458 16.2818 194.137 15.7283C194.815 15.1287 195.674 14.852 196.805 14.852C197.8 14.852 198.614 15.0365 199.247 15.3593L198.795 16.7892C198.162 16.4663 197.484 16.2818 196.715 16.2818C196.081 16.2818 195.629 16.4202 195.267 16.743C194.996 17.0198 194.815 17.3427 194.815 17.7578C194.815 18.1729 194.996 18.5419 195.313 18.8186C195.584 19.0954 196.127 19.3721 196.896 19.695C197.845 20.064 198.524 20.5252 198.976 21.0326C199.383 21.6322 199.609 22.2779 199.609 23.0159Z" fill="white"/>
<path d="M205.353 19.4644H203.454V23.3388C203.454 24.3074 203.77 24.8148 204.449 24.8148C204.765 24.8148 205.037 24.7686 205.218 24.7225L205.263 26.0601C204.901 26.1985 204.449 26.2446 203.906 26.2446C203.228 26.2446 202.685 26.014 202.278 25.5989C201.871 25.1838 201.69 24.4458 201.69 23.431V19.4182H200.559V18.0807H201.69V16.6047L203.409 16.0973V18.0807H205.308V19.4644H205.353Z" fill="white"/>
<path d="M213.992 22.0935C213.992 23.3388 213.63 24.3074 212.952 25.0915C212.228 25.9217 211.278 26.2907 210.103 26.2907C208.972 26.2907 208.022 25.9217 207.344 25.1376C206.665 24.3535 206.303 23.3849 206.303 22.1857C206.303 20.9404 206.665 19.9256 207.344 19.1415C208.067 18.3574 208.972 17.9423 210.193 17.9423C211.324 17.9423 212.274 18.3113 212.952 19.0954C213.63 19.9256 213.992 20.8942 213.992 22.0935ZM212.183 22.1396C212.183 21.4016 212.047 20.7559 211.731 20.2485C211.369 19.6028 210.826 19.2799 210.193 19.2799C209.515 19.2799 208.972 19.6028 208.61 20.2485C208.293 20.7559 208.158 21.4016 208.158 22.1857C208.158 22.9237 208.293 23.5694 208.61 24.0768C208.972 24.7225 209.515 25.0454 210.193 25.0454C210.871 25.0454 211.369 24.7225 211.731 24.0768C212.002 23.4772 212.183 22.8776 212.183 22.1396Z" fill="white"/>
<path d="M219.646 19.695C219.465 19.6488 219.284 19.6488 219.103 19.6488C218.47 19.6488 218.018 19.8795 217.701 20.3407C217.43 20.7558 217.249 21.2632 217.249 21.9089V26.1062H215.53V20.6636C215.53 19.7411 215.53 18.9109 215.485 18.1729H216.977L217.023 19.695H217.068C217.249 19.1876 217.52 18.7264 217.927 18.4496C218.334 18.1729 218.741 18.0345 219.194 18.0345C219.374 18.0345 219.51 18.0345 219.646 18.0806V19.695Z" fill="white"/>
<path d="M227.38 21.7706C227.38 22.0935 227.38 22.3702 227.335 22.5547H222.133C222.133 23.3388 222.405 23.9384 222.902 24.3535C223.355 24.7225 223.897 24.907 224.621 24.907C225.39 24.907 226.114 24.7686 226.747 24.538L227.018 25.7834C226.295 26.1062 225.39 26.2907 224.395 26.2907C223.174 26.2907 222.224 25.9217 221.545 25.1838C220.867 24.4458 220.505 23.4772 220.505 22.2318C220.505 21.0326 220.822 20.0179 221.455 19.2338C222.133 18.4035 223.038 17.9423 224.169 17.9423C225.3 17.9423 226.159 18.3574 226.747 19.2338C227.154 19.9256 227.38 20.7559 227.38 21.7706ZM225.752 21.3093C225.752 20.802 225.661 20.3407 225.435 19.9256C225.119 19.4183 224.666 19.1876 224.033 19.1876C223.445 19.1876 222.993 19.4183 222.631 19.9256C222.36 20.2946 222.179 20.7559 222.133 21.3093H225.752Z" fill="white"/>
<path d="M167.813 8.25622C167.813 9.22483 167.542 9.96281 166.954 10.4702C166.411 10.9314 165.687 11.162 164.692 11.162C164.195 11.162 163.788 11.162 163.426 11.1159V5.76553C163.878 5.67328 164.376 5.67328 164.919 5.67328C165.868 5.67328 166.547 5.85778 167.044 6.27289C167.542 6.73413 167.813 7.37987 167.813 8.25622ZM166.909 8.30235C166.909 7.65661 166.728 7.19537 166.411 6.82638C166.094 6.50351 165.597 6.31902 164.964 6.31902C164.692 6.31902 164.466 6.31902 164.285 6.36514V10.4241C164.376 10.4241 164.602 10.4702 164.873 10.4702C165.507 10.4702 166.049 10.2857 166.366 9.91669C166.728 9.5477 166.909 8.99421 166.909 8.30235Z" fill="white"/>
<path d="M172.607 9.13253C172.607 9.73215 172.427 10.2395 172.11 10.6085C171.748 11.0236 171.296 11.2081 170.708 11.2081C170.165 11.2081 169.713 11.0236 169.351 10.6546C169.034 10.2856 168.853 9.77827 168.853 9.22478C168.853 8.62517 169.034 8.1178 169.351 7.74881C169.713 7.37982 170.165 7.1492 170.753 7.1492C171.296 7.1492 171.748 7.3337 172.11 7.70269C172.427 8.07168 172.607 8.53292 172.607 9.13253ZM171.703 9.13253C171.703 8.76354 171.612 8.44067 171.477 8.21005C171.296 7.88718 171.024 7.74881 170.708 7.74881C170.346 7.74881 170.12 7.88718 169.939 8.21005C169.803 8.4868 169.713 8.76354 169.713 9.13253C169.713 9.50153 169.803 9.82439 169.939 10.055C170.12 10.3779 170.391 10.5163 170.708 10.5163C171.024 10.5163 171.296 10.3779 171.477 10.055C171.612 9.82439 171.703 9.50153 171.703 9.13253Z" fill="white"/>
<path d="M178.985 7.19532L177.764 11.1159H176.995L176.497 9.40928C176.362 8.99416 176.271 8.57905 176.181 8.16393C176.09 8.57905 176 8.99416 175.864 9.40928L175.321 11.1159H174.552L173.422 7.19532H174.281L174.733 9.04029C174.824 9.50153 174.914 9.91664 175.005 10.2856C175.05 9.96277 175.186 9.54765 175.321 9.04029L175.864 7.1492H176.542L177.085 8.99416C177.221 9.4554 177.311 9.87052 177.402 10.2856H177.447C177.492 9.87052 177.583 9.4554 177.718 8.99416L178.171 7.1492H178.985V7.19532Z" fill="white"/>
<path d="M183.417 11.1159H182.558V8.85583C182.558 8.16397 182.287 7.8411 181.789 7.8411C181.518 7.8411 181.337 7.93335 181.156 8.11785C181.02 8.30234 180.93 8.53296 180.93 8.80971V11.1159H180.07V8.30234C180.07 7.97948 180.07 7.56436 180.025 7.19537H180.794L180.839 7.79498H180.884C180.975 7.61048 181.111 7.42599 181.337 7.33374C181.563 7.19537 181.834 7.10312 182.106 7.10312C182.467 7.10312 182.784 7.24149 183.01 7.47211C183.327 7.74886 183.463 8.2101 183.463 8.76358V11.1159H183.417Z" fill="white"/>
<path d="M185.769 11.1159H184.91V5.39651H185.769V11.1159Z" fill="white"/>
<path d="M190.79 9.13253C190.79 9.73215 190.609 10.2395 190.292 10.6085C189.93 11.0236 189.478 11.2081 188.89 11.2081C188.347 11.2081 187.895 11.0236 187.533 10.6546C187.217 10.2856 187.036 9.77827 187.036 9.22478C187.036 8.62517 187.217 8.1178 187.533 7.74881C187.85 7.37982 188.347 7.1492 188.935 7.1492C189.478 7.1492 189.93 7.3337 190.292 7.70269C190.654 8.07168 190.79 8.53292 190.79 9.13253ZM189.93 9.13253C189.93 8.76354 189.84 8.44067 189.704 8.21005C189.523 7.88718 189.252 7.74881 188.935 7.74881C188.573 7.74881 188.347 7.88718 188.166 8.21005C188.031 8.4868 187.94 8.76354 187.94 9.13253C187.94 9.50153 188.031 9.82439 188.166 10.055C188.347 10.3779 188.619 10.5163 188.935 10.5163C189.252 10.5163 189.523 10.3779 189.704 10.055C189.84 9.82439 189.93 9.50153 189.93 9.13253Z" fill="white"/>
<path d="M194.951 11.1159H194.182L194.137 10.6547H194.091C193.82 11.0237 193.458 11.2082 192.961 11.2082C192.599 11.2082 192.327 11.0698 192.101 10.8392C191.92 10.6085 191.785 10.3779 191.785 10.0551C191.785 9.59382 191.966 9.22482 192.373 8.94808C192.78 8.71746 193.322 8.57909 194.046 8.57909V8.48684C194.046 7.97948 193.775 7.70273 193.232 7.70273C192.87 7.70273 192.508 7.79498 192.237 7.97948L192.056 7.42599C192.418 7.19537 192.87 7.10312 193.368 7.10312C194.363 7.10312 194.86 7.65661 194.86 8.71746V10.1473C194.905 10.5624 194.905 10.8853 194.951 11.1159ZM194.046 9.77831V9.1787C193.096 9.1787 192.644 9.40932 192.644 9.96281C192.644 10.1473 192.689 10.3318 192.825 10.4241C192.915 10.5163 193.096 10.5624 193.232 10.5624C193.413 10.5624 193.594 10.5163 193.775 10.3779C193.956 10.2396 194.046 10.1012 194.091 9.91669C194.046 9.87056 194.046 9.82444 194.046 9.77831Z" fill="white"/>
<path d="M199.79 11.1159H199.021L198.976 10.4702H198.931C198.705 10.9314 198.298 11.2081 197.71 11.2081C197.257 11.2081 196.85 11.0237 196.534 10.6547C196.217 10.2857 196.081 9.82443 196.081 9.22481C196.081 8.57908 196.262 8.07171 196.579 7.70272C196.896 7.33373 197.303 7.14923 197.755 7.14923C198.252 7.14923 198.614 7.33373 198.84 7.70272V5.44264H199.7V10.1012C199.745 10.424 199.79 10.793 199.79 11.1159ZM198.931 9.45543V8.8097C198.931 8.71745 198.931 8.6252 198.886 8.53295C198.84 8.30233 198.75 8.16396 198.569 8.02559C198.388 7.88722 198.207 7.79497 197.981 7.79497C197.664 7.79497 197.393 7.93334 197.212 8.16396C197.031 8.44071 196.941 8.76357 196.941 9.13256C196.941 9.50156 197.031 9.82443 197.212 10.055C197.393 10.3318 197.664 10.424 197.981 10.424C198.252 10.424 198.479 10.3318 198.66 10.1012C198.84 9.9628 198.931 9.73218 198.931 9.45543Z" fill="white"/>
<path d="M207.117 9.13253C207.117 9.73215 206.936 10.2395 206.62 10.6085C206.258 11.0236 205.806 11.2081 205.218 11.2081C204.675 11.2081 204.223 11.0236 203.861 10.6546C203.544 10.2856 203.363 9.77827 203.363 9.22478C203.363 8.62517 203.544 8.1178 203.861 7.74881C204.223 7.37982 204.675 7.1492 205.263 7.1492C205.806 7.1492 206.258 7.3337 206.62 7.70269C206.936 8.07168 207.117 8.53292 207.117 9.13253ZM206.213 9.13253C206.213 8.76354 206.122 8.44067 205.987 8.21005C205.806 7.88718 205.534 7.74881 205.218 7.74881C204.856 7.74881 204.63 7.88718 204.449 8.21005C204.313 8.4868 204.223 8.76354 204.223 9.13253C204.223 9.50153 204.313 9.82439 204.449 10.055C204.63 10.3779 204.901 10.5163 205.218 10.5163C205.534 10.5163 205.806 10.3779 205.987 10.055C206.122 9.82439 206.213 9.50153 206.213 9.13253Z" fill="white"/>
<path d="M211.686 11.1159H210.826V8.85583C210.826 8.16397 210.555 7.8411 210.057 7.8411C209.786 7.8411 209.605 7.93335 209.424 8.11785C209.288 8.30234 209.198 8.53296 209.198 8.80971V11.1159H208.339V8.30234C208.339 7.97948 208.339 7.56436 208.293 7.19537H209.062L209.107 7.79498H209.153C209.243 7.61048 209.379 7.42599 209.605 7.33374C209.831 7.19537 210.103 7.10312 210.374 7.10312C210.736 7.10312 211.007 7.24149 211.278 7.47211C211.595 7.74886 211.731 8.2101 211.731 8.76358V11.1159H211.686Z" fill="white"/>
<path d="M217.43 7.8411H216.48V9.73218C216.48 10.1934 216.661 10.4702 216.977 10.4702C217.113 10.4702 217.249 10.4702 217.339 10.424V11.0698C217.158 11.1159 216.932 11.162 216.661 11.162C216.344 11.162 216.073 11.0698 215.892 10.8392C215.711 10.6085 215.62 10.2857 215.62 9.77831V7.8411H215.078V7.19536H215.62V6.45738L216.48 6.18063V7.14924H217.43V7.8411Z" fill="white"/>
<path d="M221.953 11.1159H221.093V8.90194C221.093 8.21008 220.822 7.84109 220.324 7.84109C219.917 7.84109 219.646 8.02558 219.51 8.4407C219.465 8.53295 219.465 8.6252 219.465 8.76357V11.1159H218.606V5.39651H219.465V7.74884C219.736 7.33372 220.098 7.1031 220.641 7.1031C221.003 7.1031 221.274 7.24148 221.5 7.4721C221.772 7.74884 221.953 8.21008 221.953 8.76357V11.1159Z" fill="white"/>
<path d="M226.611 8.94808C226.611 9.08645 226.611 9.22482 226.566 9.36319H223.988C223.988 9.73218 224.124 10.0551 224.35 10.2395C224.576 10.424 224.847 10.5163 225.209 10.5163C225.571 10.5163 225.933 10.4702 226.249 10.3318L226.385 10.9314C226.023 11.0698 225.571 11.162 225.073 11.162C224.485 11.162 223.988 10.9775 223.671 10.6085C223.309 10.2395 223.174 9.77831 223.174 9.1787C223.174 8.57908 223.309 8.11784 223.626 7.70273C223.943 7.28761 224.395 7.05699 224.983 7.05699C225.526 7.05699 225.978 7.28761 226.249 7.70273C226.521 8.07172 226.611 8.48684 226.611 8.94808ZM225.797 8.71746C225.797 8.44071 225.752 8.25622 225.616 8.0256C225.48 7.79498 225.254 7.6566 224.938 7.6566C224.666 7.6566 224.44 7.79498 224.259 8.0256C224.124 8.21009 224.033 8.44071 223.988 8.71746H225.797Z" fill="white"/>
</g>
<path d="M104.196 34H4.01962C1.796 34 0 32.1108 0 29.8378V4.95289C0 2.65037 1.796 0.790649 4.01962 0.790649H104.225C106.42 0.790649 108.245 2.65037 108.245 4.95289V29.8378C108.216 32.1108 106.392 34 104.196 34Z" fill="black"/>
<path d="M104.196 1.44008C106.05 1.44008 107.56 3.00461 107.56 4.92337V29.8082C107.56 31.727 106.05 33.2915 104.196 33.2915H4.01962C2.1666 33.2915 0.655682 31.727 0.655682 29.8082V4.95289C0.655682 3.03413 2.1666 1.4696 4.01962 1.4696H104.196V1.44008ZM104.196 0.790649H4.01962C1.796 0.790649 0 2.65037 0 4.95289V29.8378C0 32.1108 1.796 34 4.01962 34H104.225C106.42 34 108.245 32.1403 108.245 29.8378V4.95289C108.216 2.65037 106.392 0.790649 104.196 0.790649Z" fill="#A6A6A6"/>
<path d="M38.0011 9.29442C38.0011 10.0029 37.8015 10.5342 37.4024 10.9475C36.9463 11.4493 36.3476 11.6855 35.6349 11.6855C34.9507 11.6855 34.3521 11.4493 33.8674 10.9475C33.3828 10.4457 33.1262 9.82577 33.1262 9.08778C33.1262 8.3498 33.3828 7.72989 33.8674 7.22805C34.3521 6.72622 34.9507 6.49007 35.6349 6.49007C35.977 6.49007 36.3191 6.54911 36.6327 6.6967C36.9463 6.8443 37.2028 7.02142 37.3739 7.25757L36.9463 7.70037C36.6327 7.31661 36.1766 7.10998 35.6349 7.10998C35.1218 7.10998 34.6942 7.28709 34.3236 7.67085C33.953 8.02508 33.7819 8.52691 33.7819 9.1173C33.7819 9.70769 33.953 10.18 34.3236 10.5638C34.6942 10.918 35.1218 11.1246 35.6349 11.1246C36.1766 11.1246 36.6327 10.9475 36.9748 10.5638C37.2028 10.3276 37.3454 9.97337 37.3739 9.5601H35.6349V8.96971H37.9726C38.0011 9.05826 38.0011 9.17634 38.0011 9.29442Z" fill="white" stroke="white" stroke-width="0.2" stroke-miterlimit="10"/>
<path d="M41.7071 7.22598H39.512V8.7905H41.4791V9.38089H39.512V10.9454H41.7071V11.5653H38.9133V6.60608H41.7071V7.22598Z" fill="white" stroke="white" stroke-width="0.2" stroke-miterlimit="10"/>
<path d="M44.3013 11.5948H43.6742V7.22598H42.3343V6.60608H45.6412V7.22598H44.3013V11.5948Z" fill="white" stroke="white" stroke-width="0.2" stroke-miterlimit="10"/>
<path d="M48.0359 11.5948V6.60608H48.6631V11.5948H48.0359Z" fill="white" stroke="white" stroke-width="0.2" stroke-miterlimit="10"/>
<path d="M51.3998 11.5948H50.7726V7.22598H49.4328V6.60608H52.7397V7.22598H51.3998V11.5948Z" fill="white" stroke="white" stroke-width="0.2" stroke-miterlimit="10"/>
<path d="M59.0114 10.9454C58.5268 11.4472 57.9566 11.7129 57.2439 11.7129C56.5312 11.7129 55.9611 11.4472 55.4765 10.9454C54.9918 10.4436 54.7638 9.82367 54.7638 9.08569C54.7638 8.34772 54.9918 7.72782 55.4765 7.22599C55.9611 6.72417 56.5312 6.4585 57.2439 6.4585C57.9566 6.4585 58.5268 6.72417 59.0114 7.22599C59.496 7.72782 59.7241 8.34772 59.7241 9.05617C59.6956 9.82367 59.4675 10.4436 59.0114 10.9454ZM55.9326 10.5321C56.2747 10.9159 56.7308 11.093 57.2439 11.093C57.7571 11.093 58.1847 10.9159 58.5553 10.5321C58.8974 10.1484 59.0969 9.67607 59.0969 9.11521C59.0969 8.55435 58.9259 8.05253 58.5553 7.6983C58.2132 7.31455 57.7571 7.13743 57.2439 7.13743C56.7308 7.13743 56.3032 7.31455 55.9326 7.6983C55.5905 8.08204 55.3909 8.55435 55.3909 9.11521C55.3909 9.67607 55.562 10.1484 55.9326 10.5321Z" fill="white" stroke="white" stroke-width="0.2" stroke-miterlimit="10"/>
<path d="M60.5794 11.5948V6.60606H61.3206L63.6583 10.4731H63.6868L63.6583 9.49897V6.57654H64.2854V11.5653H63.6297L61.178 7.49164H61.1495L61.178 8.46578V11.5653H60.5794V11.5948Z" fill="white" stroke="white" stroke-width="0.2" stroke-miterlimit="10"/>
<path d="M54.6212 18.8566C52.7397 18.8566 51.2003 20.3326 51.2003 22.3989C51.2003 24.4358 52.7397 25.9412 54.6212 25.9412C56.5027 25.9412 58.0422 24.4358 58.0422 22.3989C58.0422 20.3326 56.5027 18.8566 54.6212 18.8566ZM54.6212 24.5243C53.5949 24.5243 52.7112 23.6387 52.7112 22.3989C52.7112 21.1296 53.5949 20.2735 54.6212 20.2735C55.6475 20.2735 56.5312 21.1296 56.5312 22.3989C56.5312 23.6387 55.6475 24.5243 54.6212 24.5243ZM47.1521 18.8566C45.2706 18.8566 43.7312 20.3326 43.7312 22.3989C43.7312 24.4358 45.2706 25.9412 47.1521 25.9412C49.0336 25.9412 50.5731 24.4358 50.5731 22.3989C50.5731 20.3326 49.0336 18.8566 47.1521 18.8566ZM47.1521 24.5243C46.1258 24.5243 45.2421 23.6387 45.2421 22.3989C45.2421 21.1296 46.1258 20.2735 47.1521 20.2735C48.1784 20.2735 49.0622 21.1296 49.0622 22.3989C49.0622 23.6387 48.1784 24.5243 47.1521 24.5243ZM38.2576 19.9193V21.4248H41.7071C41.5931 22.2809 41.3365 22.8712 40.9089 23.314C40.3957 23.8454 39.626 24.4062 38.2291 24.4062C36.091 24.4062 34.4376 22.6351 34.4376 20.4211C34.4376 18.2072 36.1481 16.436 38.2576 16.436C39.398 16.436 40.2532 16.9083 40.8804 17.4987L41.9067 16.436C41.0514 15.58 39.8826 14.9305 38.2862 14.9305C35.3784 14.9305 32.9267 17.3806 32.9267 20.4211C32.9267 23.4321 35.3784 25.9117 38.2862 25.9117C39.8541 25.9117 41.0514 25.3804 41.9922 24.3767C42.9615 23.3731 43.2465 21.9857 43.2465 20.8639C43.2465 20.5097 43.218 20.185 43.161 19.9193H38.2576ZM74.5768 21.1001C74.2917 20.3031 73.4364 18.8566 71.669 18.8566C69.9015 18.8566 68.4476 20.2735 68.4476 22.3989C68.4476 24.3767 69.9015 25.9412 71.84 25.9412C73.4079 25.9412 74.3202 24.9376 74.6908 24.3767L73.522 23.5797C73.1229 24.1701 72.6097 24.5538 71.84 24.5538C71.0703 24.5538 70.5286 24.1996 70.1865 23.4911L74.7478 21.5429L74.5768 21.1001ZM69.93 22.2809C69.9015 20.923 70.9563 20.2145 71.726 20.2145C72.3246 20.2145 72.8378 20.5097 72.9803 20.9525L69.93 22.2809ZM66.2239 25.7051H67.7349V15.3143H66.2239V25.7051ZM63.7723 19.6241H63.7152C63.3731 19.2108 62.746 18.8271 61.9192 18.8271C60.2088 18.8271 58.6408 20.3916 58.6408 22.3694C58.6408 24.3472 60.2088 25.8822 61.9192 25.8822C62.746 25.8822 63.3731 25.4985 63.7152 25.0852H63.7723V25.587C63.7723 26.9449 63.0881 27.6534 61.9477 27.6534C61.0355 27.6534 60.4653 26.9744 60.2373 26.384L58.9259 26.9449C59.2965 27.8895 60.2943 29.0408 61.9477 29.0408C63.7152 29.0408 65.1977 27.9781 65.1977 25.3509V19.0632H63.7723V19.6241ZM62.0618 24.5243C61.0355 24.5243 60.1517 23.6387 60.1517 22.3989C60.1517 21.1591 61.007 20.244 62.0618 20.244C63.0881 20.244 63.8863 21.1591 63.8863 22.3989C63.8863 23.6092 63.0881 24.5243 62.0618 24.5243ZM81.5897 15.3143H77.9977V25.6756H79.4801V21.7495H81.5612C83.2147 21.7495 84.8396 20.5097 84.8396 18.5319C84.8396 16.5541 83.2717 15.3143 81.5897 15.3143ZM81.6467 20.3031H79.5086V16.7607H81.6467C82.7585 16.7607 83.3857 17.7054 83.3857 18.5319C83.3857 19.3289 82.7585 20.3031 81.6467 20.3031ZM90.8833 18.8271C89.8 18.8271 88.6882 19.3289 88.2036 20.4211L89.5434 20.982C89.8285 20.4211 90.3417 20.2145 90.9118 20.2145C91.6815 20.2145 92.4797 20.6868 92.4797 21.5429V21.6609C92.2232 21.5133 91.6245 21.2477 90.9118 21.2477C89.4864 21.2477 88.0325 22.0742 88.0325 23.5797C88.0325 24.9671 89.2013 25.8527 90.5127 25.8527C91.5105 25.8527 92.0806 25.3804 92.4227 24.849H92.4797V25.6461H93.9337V21.6905C93.9337 19.8603 92.5938 18.8271 90.8833 18.8271ZM90.7123 24.5243C90.2276 24.5243 89.5434 24.2586 89.5434 23.6387C89.5434 22.8417 90.3987 22.517 91.1399 22.517C91.7956 22.517 92.1091 22.6646 92.5083 22.8712C92.3657 23.8454 91.5675 24.5243 90.7123 24.5243ZM99.1791 19.0632L97.4686 23.5502H97.4116L95.6441 19.0632H94.0192L96.6989 25.3509L95.188 28.8341H96.7559L100.861 19.0632H99.1791ZM85.7234 25.7051H87.2058V15.3143H85.7234V25.7051Z" fill="white"/>
<path d="M8.35284 7.04879C8.12478 7.31446 7.98224 7.69821 7.98224 8.22956V26.5906C7.98224 27.0925 8.12478 27.5057 8.35284 27.7714L8.40986 27.8304L18.3306 17.5577V17.4396V17.3215L8.40986 6.98975L8.35284 7.04879Z" fill="url(#paint0_linear)"/>
<path d="M21.666 20.9524L18.3591 17.4986V17.3805V17.2624L21.666 13.8381L21.7515 13.8677L25.6571 16.1997C26.7689 16.8491 26.7689 17.9414 25.6571 18.5908L21.723 20.8934L21.666 20.9524Z" fill="url(#paint1_linear)"/>
<path d="M21.7516 20.8933L18.3591 17.3805L8.38135 27.7123C8.75195 28.1256 9.35062 28.1551 10.0348 27.7713L21.7516 20.8933Z" fill="url(#paint2_linear)"/>
<path d="M21.7516 13.8972L10.0348 6.98965C9.35062 6.57638 8.75195 6.63542 8.38135 7.04869L18.3591 17.3805L21.7516 13.8972Z" fill="url(#paint3_linear)"/>
<path opacity="0.2" d="M21.666 20.8344L10.0348 27.6533C9.37912 28.037 8.80897 28.0075 8.43836 27.6533L8.38135 27.7123L8.43836 27.7714C8.80897 28.1256 9.40763 28.1551 10.0348 27.7714L21.7516 20.8934L21.666 20.8344Z" fill="black"/>
<path opacity="0.12" d="M8.35287 27.6238C8.12479 27.3582 7.98224 26.9744 7.98224 26.4431V26.5611C7.98224 27.063 8.12479 27.4762 8.35287 27.7419L8.40989 27.6829L8.35287 27.6238Z" fill="black"/>
<path opacity="0.12" d="M25.6572 18.4727L21.666 20.8343L21.7516 20.9229L25.6572 18.5908C26.2273 18.2661 26.4839 17.8233 26.4839 17.3805C26.4554 17.7938 26.1703 18.1775 25.6572 18.4727Z" fill="black"/>
<path opacity="0.25" d="M10.036 7.10803L25.6583 16.318C26.1715 16.6132 26.4566 16.997 26.4851 17.3807C26.4851 16.9379 26.2 16.5247 25.6583 16.1704L10.036 6.98996C8.92416 6.34053 8.01191 6.87188 8.01191 8.20025V8.31832C7.9834 7.01948 8.92416 6.45861 10.036 7.10803Z" fill="white"/>
<defs>
<linearGradient id="paint0_linear" x1="17.4734" y1="8.01968" x2="3.55272" y2="21.4633" gradientUnits="userSpaceOnUse">
<stop stop-color="#00A0FF"/>
<stop offset="0.00657445" stop-color="#00A1FF"/>
<stop offset="0.2601" stop-color="#00BEFF"/>
<stop offset="0.5122" stop-color="#00D2FF"/>
<stop offset="0.7604" stop-color="#00DFFF"/>
<stop offset="1" stop-color="#00E3FF"/>
</linearGradient>
<linearGradient id="paint1_linear" x1="27.1197" y1="17.3915" x2="7.72477" y2="17.3915" gradientUnits="userSpaceOnUse">
<stop stop-color="#FFE000"/>
<stop offset="0.4087" stop-color="#FFBD00"/>
<stop offset="0.7754" stop-color="#FFA500"/>
<stop offset="1" stop-color="#FF9C00"/>
</linearGradient>
<linearGradient id="paint2_linear" x1="19.8998" y1="19.2961" x2="1.02228" y2="37.5267" gradientUnits="userSpaceOnUse">
<stop stop-color="#FF3A44"/>
<stop offset="1" stop-color="#C31162"/>
</linearGradient>
<linearGradient id="paint3_linear" x1="5.84908" y1="0.936899" x2="14.2787" y2="9.07763" gradientUnits="userSpaceOnUse">
<stop stop-color="#32A071"/>
<stop offset="0.0685" stop-color="#2DA771"/>
<stop offset="0.4762" stop-color="#15CF74"/>
<stop offset="0.8009" stop-color="#06E775"/>
<stop offset="1" stop-color="#00F076"/>
</linearGradient>
<clipPath id="clip0">
<rect width="109.907" height="33.2093" fill="white" transform="translate(127.785)"/>
</clipPath>
</defs>
</svg>
